<svg width="25" height="24" viewBox="0 0 25 24" fill="none" xmlns="http://www.w3.org/2000/svg">
<path d="M9.88083 7.86667L20.716 13.0858C20.8678 13.159 21.0474 13.1444 21.1855 13.0477L23.2322 11.6146C23.4133 11.4878 23.3927 11.2134 23.1947 11.1151L10.6035 4.86537C9.93513 4.5336 9.13889 4.59349 8.52763 5.02149L7.84912 5.49659L7.17061 5.97169C6.55935 6.3997 6.23074 7.12744 6.3139 7.86901L7.88031 21.8383C7.90494 22.058 8.15573 22.1713 8.33682 22.0445L10.3836 20.6113C10.5217 20.5146 10.5968 20.3509 10.58 20.1831L9.38138 8.21639C9.35417 7.94478 9.6349 7.74821 9.88083 7.86667Z" fill="white"/>
<path d="M13.6757 13.376L18.6258 15.7314C18.8273 15.8273 18.8505 16.105 18.6677 16.233L16.4528 17.7839L14.2379 19.3348C14.055 19.4628 13.8021 19.346 13.7809 19.1238L13.2606 13.6666C13.2391 13.4414 13.4714 13.2788 13.6757 13.376Z" fill="#76C1D1"/>
</svg>
