<svg width="8" height="55" viewBox="0 0 8 55" fill="none" xmlns="http://www.w3.org/2000/svg">
<g clip-path="url(#clip0_3848_1138)">
<mask id="mask0_3848_1138" style="mask-type:alpha" maskUnits="userSpaceOnUse" x="0" y="-89" width="8" height="213">
<path d="M6.3 124C2.82061 124 -1.23293e-07 121.179 -2.75382e-07 117.7L-9.03514e-06 -82.7C-9.18723e-06 -86.1794 2.8206 -89 6.29999 -89L7.99999 -89L8 124L6.3 124Z" fill="url(#paint0_linear_3848_1138)"/>
</mask>
<g mask="url(#mask0_3848_1138)">
<g opacity="0.4">
<g filter="url(#filter0_f_3848_1138)">
<path d="M-9.60156 44.0311L-9.60156 53.0892L12.3657 78.832L12.3657 69.774L-9.60156 44.0311Z" fill="#F0A338"/>
<path d="M-9.60156 29.8241L-9.60156 38.8821L12.3657 64.625L12.3657 55.567L-9.60156 29.8241Z" fill="#F0A338"/>
<path d="M-9.60156 15.6171L-9.60156 24.6751L12.3657 50.418L12.3657 41.3599L-9.60156 15.6171Z" fill="#F0A338"/>
<path d="M-9.60156 1.41004L-9.60156 10.4681L12.3657 36.2109L12.3657 27.1529L-9.60156 1.41004Z" fill="#F0A338"/>
<path d="M-9.60156 -12.7931L-9.60156 -3.73505L12.3657 22.0078L12.3657 12.9498L-9.60156 -12.7931Z" fill="#F0A338"/>
<path d="M-9.60156 -27.0001L-9.60156 -17.9421L12.3657 7.80078L12.3657 -1.25725L-9.60156 -27.0001Z" fill="#F0A338"/>
</g>
<path d="M-9.60156 44.0311L-9.60156 53.0892L12.3657 78.832L12.3657 69.774L-9.60156 44.0311Z" fill="#F0A338"/>
<path d="M-9.60156 29.8241L-9.60156 38.8821L12.3657 64.625L12.3657 55.567L-9.60156 29.8241Z" fill="#F0A338"/>
<path d="M-9.60156 15.6171L-9.60156 24.6751L12.3657 50.418L12.3657 41.3599L-9.60156 15.6171Z" fill="#F0A338"/>
<path d="M-9.60156 1.41004L-9.60156 10.4681L12.3657 36.2109L12.3657 27.1529L-9.60156 1.41004Z" fill="#F0A338"/>
<path d="M-9.60156 -12.7931L-9.60156 -3.73505L12.3657 22.0078L12.3657 12.9498L-9.60156 -12.7931Z" fill="#F0A338"/>
<path d="M-9.60156 -27.0001L-9.60156 -17.9421L12.3657 7.80078L12.3657 -1.25725L-9.60156 -27.0001Z" fill="#F0A338"/>
</g>
</g>
<rect x="1" y="11" width="34" height="0.999999" transform="rotate(90 1 11)" fill="url(#paint1_linear_3848_1138)"/>
</g>
<defs>
<filter id="filter0_f_3848_1138" x="-12.5651" y="-257.272" width="27.8958" height="537.962" filterUnits="userSpaceOnUse" color-interpolation-filters="sRGB">
<feFlood flood-opacity="0" result="BackgroundImageFix"/>
<feBlend mode="normal" in="SourceGraphic" in2="BackgroundImageFix" result="shape"/>
<feGaussianBlur stdDeviation="1.48175" result="effect1_foregroundBlur_3848_1138"/>
</filter>
<linearGradient id="paint0_linear_3848_1138" x1="-4.49583e-06" y1="17" x2="8" y2="17" gradientUnits="userSpaceOnUse">
<stop stop-color="#D9D9D9"/>
<stop offset="1" stop-opacity="0"/>
</linearGradient>
<linearGradient id="paint1_linear_3848_1138" x1="1" y1="11.5" x2="35" y2="11.5" gradientUnits="userSpaceOnUse">
<stop stop-color="#F0A338" stop-opacity="0"/>
<stop offset="0.5" stop-color="#F0A338"/>
<stop offset="1" stop-color="#F0A338" stop-opacity="0"/>
</linearGradient>
<clipPath id="clip0_3848_1138">
<rect width="8" height="87" fill="white" transform="translate(0 -16)"/>
</clipPath>
</defs>
</svg>
