<svg width="51" height="10" viewBox="0 0 51 10" fill="none" xmlns="http://www.w3.org/2000/svg">
  <path fill-rule="evenodd" clip-rule="evenodd"
        d="M0.0331732 4.07853C0.0258442 6.32026 0.0138997 8.56062 0.00665615 9.05716C-0.00507462 9.86034 -0.0029165 9.95994 0.0262715 9.95994C0.0443271 9.95994 0.646378 9.36618 1.36418 8.64049L2.66926 7.32105L2.66937 4.98665L2.6695 2.65224H4.32193C5.23078 2.65224 7.18751 2.64585 8.67022 2.63803L11.3661 2.6238L11.366 2.06645C11.366 1.75989 11.3597 1.17015 11.3519 0.755876L11.3378 0.00267094H5.69217H0.0465493L0.0331732 4.07853ZM12.3845 0.87156C12.3767 1.34944 12.3704 2.41194 12.3704 3.23267V4.72489H14.7051H17.0398L17.3071 4.45246C17.4541 4.30261 17.6027 4.14848 17.6373 4.10996L17.7001 4.03987L16.9851 3.3247L16.2702 2.60951H18.6899H21.1097V5.02927V7.44902L20.3777 6.71729L19.6458 5.98558L18.9302 6.70139L18.2146 7.4172H15.2925H12.3704L12.3709 7.55075C12.3727 8.02844 12.4142 9.76575 12.4258 9.85336L12.44 9.95994H18.0748H23.7096L23.7237 9.23878C23.7315 8.84216 23.7378 6.60177 23.7378 4.26015L23.7379 0.00267094H18.0683H12.3987L12.3845 0.87156ZM24.7849 4.97996V9.95994H26.1212H27.4575L27.4425 8.65652L27.4276 7.3531L28.0026 7.35306C28.3189 7.35306 28.9145 7.34673 29.3262 7.339L30.0748 7.32498L31.4676 8.64256L32.8604 9.96017L34.7649 9.9547L36.6694 9.94925L35.1922 8.64049L33.715 7.33173H34.7225H35.7299L35.7146 3.69391C35.7051 1.4638 35.6914 0.0478205 35.679 0.0347222C35.6657 0.0206197 33.8101 0.0110897 30.2218 0.00666667L24.7849 0V4.97996ZM36.6866 4.9813V9.95994H38.0114H39.3362V4.9813V0.00267094H38.0114H36.6866V4.9813ZM40.49 4.9813V9.95994H45.2977H50.1054V8.63515V7.31036H46.6225H43.1396V6.72276V6.13515H46.5263H49.9131V4.97062V3.80609H46.5263H43.1396V3.22917V2.65224H46.6225H50.1054V1.32746V0.00267094H45.2977H40.49V4.9813ZM5.11074 8.68323L3.83416 9.95994H7.6108H11.3874V8.68874V7.41754L8.88738 7.41203L6.38732 7.40652L5.11074 8.68323Z"
        fill="black"/>
</svg>
